HIERARCHY
ROOT Hips
{
	OFFSET 0.000000 0.000000 0.000000
	CHANNELS 6 Xposition Yposition Zposition Xrotation Yrotation Zrotation
	JOINT LeftUpLeg_virtual
	{
		OFFSET 0.000000 0.000000 0.000000
		CHANNELS 3 Xrotation Yrotation Zrotation
		JOINT LeftUpLeg
		{
			OFFSET 11.394100 -6.187798 -0.413800
			CHANNELS 3 Xrotation Yrotation Zrotation
			JOINT LeftLeg
			{
				OFFSET 0.430247 -32.302673 3.732800
				CHANNELS 3 Xrotation Yrotation Zrotation
				JOINT LeftFoot
				{
					OFFSET -0.430247 -48.264931 -6.423300
					CHANNELS 3 Xrotation Yrotation Zrotation
					JOINT LeftToeBase
					{
						OFFSET 4.230900 -16.068199 23.438400
						CHANNELS 3 Xrotation Yrotation Zrotation
						JOINT LeftToe_End
						{
							OFFSET 4.510700 0.695400 19.974600
							CHANNELS 3 Xrotation Yrotation Zrotation
							End Site
							{
								OFFSET 0 0 0
							}
						}
					}
				}
			}
		}
	}
	JOINT RightUpLeg_virtual
	{
		OFFSET 0.000000 0.000000 0.000000
		CHANNELS 3 Xrotation Yrotation Zrotation
		JOINT RightUpLeg
		{
			OFFSET -11.333700 -6.187798 -0.413800
			CHANNELS 3 Xrotation Yrotation Zrotation
			JOINT RightLeg
			{
				OFFSET -0.430392 -32.302628 3.733000
				CHANNELS 3 Xrotation Yrotation Zrotation
				JOINT RightFoot
				{
					OFFSET 0.430392 -48.264973 -6.423500
					CHANNELS 3 Xrotation Yrotation Zrotation
					JOINT RightToeBase
					{
						OFFSET -4.230900 -16.068199 23.438400
						CHANNELS 3 Xrotation Yrotation Zrotation
						JOINT RightToe_End
						{
							OFFSET -4.510700 0.695400 19.974600
							CHANNELS 3 Xrotation Yrotation Zrotation
							End Site
							{
								OFFSET 0 0 0
							}
						}
					}
				}
			}
		}
	}
	JOINT Spine_virtual
	{
		OFFSET 0.000000 0.000000 0.000000
		CHANNELS 3 Xrotation Yrotation Zrotation
		JOINT Spine
		{
			OFFSET -0.002400 12.777504 0.315300
			CHANNELS 3 Xrotation Yrotation Zrotation
			JOINT Spine1
			{
				OFFSET -0.002067 5.816869 0.032633
				CHANNELS 3 Xrotation Yrotation Zrotation
				JOINT Spine1_split
				{
					OFFSET -0.002067 5.816869 0.032633
					CHANNELS 3 Xrotation Yrotation Zrotation
					JOINT Spine2
					{
						OFFSET -0.002067 5.816869 0.032633
						CHANNELS 3 Xrotation Yrotation Zrotation
						JOINT Neck_virtual
						{
							OFFSET 0.000000 0.000000 0.000000
							CHANNELS 3 Xrotation Yrotation Zrotation
							JOINT Neck
							{
								OFFSET -0.003700 21.199493 -0.826900
								CHANNELS 3 Xrotation Yrotation Zrotation
								JOINT Head
								{
									OFFSET 0.000000 20.442200 4.834800
									CHANNELS 3 Xrotation Yrotation Zrotation
									JOINT HeadTop_End
									{
										OFFSET 0.000000 34.668396 4.968400
										CHANNELS 3 Xrotation Yrotation Zrotation
										End Site
										{
											OFFSET 0 0 0
										}
									}
								}
							}
						}
						JOINT LeftShoulder_virtual
						{
							OFFSET 0.000000 0.000000 0.000000
							CHANNELS 3 Xrotation Yrotation Zrotation
							JOINT LeftShoulder
							{
								OFFSET 3.288150 8.794197 -1.372250
								CHANNELS 3 Xrotation Yrotation Zrotation
								JOINT LeftShoulder_split
								{
									OFFSET 3.288150 8.794197 -1.372250
									CHANNELS 3 Xrotation Yrotation Zrotation
									JOINT LeftArm
									{
										OFFSET 11.953299 -2.279007 -0.146200
										CHANNELS 3 Xrotation Yrotation Zrotation
										JOINT LeftForeArm
										{
											OFFSET 18.448900 0.000000 0.000000
											CHANNELS 3 Xrotation Yrotation Zrotation
											JOINT LeftHand
											{
												OFFSET 29.527798 0.000000 0.000000
												CHANNELS 3 Xrotation Yrotation Zrotation
												End Site
												{
													OFFSET 0 0 0
												}
											}
										}
									}
								}
							}
						}
						JOINT RightShoulder_virtual
						{
							OFFSET 0.000000 0.000000 0.000000
							CHANNELS 3 Xrotation Yrotation Zrotation
							JOINT RightShoulder
							{
								OFFSET -3.249400 8.794197 -1.372250
								CHANNELS 3 Xrotation Yrotation Zrotation
								JOINT RightShoulder_split
								{
									OFFSET -3.249400 8.794197 -1.372250
									CHANNELS 3 Xrotation Yrotation Zrotation
									JOINT RightArm
									{
										OFFSET -11.953299 -2.279007 -0.146200
										CHANNELS 3 Xrotation Yrotation Zrotation
										JOINT RightForeArm
										{
											OFFSET -18.448900 0.000000 0.000000
											CHANNELS 3 Xrotation Yrotation Zrotation
											JOINT RightHand
											{
												OFFSET -29.527802 0.000000 0.000000
												CHANNELS 3 Xrotation Yrotation Zrotation
												End Site
												{
													OFFSET 0 0 0
												}
											}
										}
									}
								}
							}
						}
					}
				}
			}
		}
	}
}
MOTION
Frames: 4
Frame Time: 0.03333333
-0.005419 87.863426 0.364834 0.000000 0.000000 0.000000 -6.775214 -50.985047 -0.306483 -26.631357 12.263851 17.938920 53.233890 0.552145 5.760159 -22.208234 -7.820964 -14.254309 -5.549259 0.631360 0.044785 0.000000 0.000000 0.000000 -7.845434 -48.808221 0.065411 -31.798588 -12.327935 -31.167690 56.904085 -5.762498 -8.578378 -20.817092 -5.808056 18.825318 -3.316382 1.147758 -0.450432 0.000000 0.000000 0.000000 -6.103710 -49.660413 -0.887377 9.894708 7.390043 -2.891224 1.337362 1.505886 -0.569770 0.531211 -1.274508 1.364279 0.000000 0.000000 0.000000 0.669413 2.142114 -0.459605 3.493886 14.185277 6.410007 6.733159 19.336505 -2.275457 0.000000 0.000000 0.000000 3.169318 1.278184 -0.131960 1.300901 3.517690 -7.189478 -5.352109 -3.940986 -3.888895 -50.436012 6.327687 -46.545441 179.439643 -72.098889 -178.124763 0.000000 0.000000 0.000000 3.146151 1.888122 -0.263595 3.891296 11.056989 -5.446031 0.522441 -4.446189 -1.786660 -49.715690 20.375038 87.058479 176.886163 72.242740 -176.780281 0.000000 0.000000 0.000000 
0.314448 86.530693 1.729324 0.000000 0.000000 0.000000 -7.767721 -52.322316 -1.017765 -28.538730 11.883838 17.728330 55.263583 1.763658 5.065502 -21.712075 -7.420491 -14.226671 -6.938887 0.630056 -0.319019 0.000000 0.000000 0.000000 -9.088817 -49.961898 -0.684198 -32.240153 -11.650001 -31.739746 58.449112 -5.216182 -8.495602 -22.870166 -6.025435 19.215293 -2.904980 0.870661 -0.463676 0.000000 0.000000 0.000000 -6.270840 -50.188442 -0.937494 10.658847 7.599400 -2.761502 1.496156 1.416160 -0.552699 0.766417 -1.147475 1.386191 0.000000 0.000000 0.000000 0.704910 2.048317 -0.526256 3.619169 14.108934 6.253818 6.816516 19.465780 -2.173512 0.000000 0.000000 0.000000 3.120032 1.250924 -0.079718 1.216578 3.247513 -7.585760 -3.318385 -5.633409 -3.333128 -52.637662 6.478310 -47.268925 176.194251 -72.241497 178.235726 0.000000 0.000000 0.000000 3.185416 1.820493 -0.289895 3.994582 11.734835 -5.412799 0.956108 -4.513755 -0.896625 -50.987243 22.524359 87.253863 177.321738 72.939269 -176.991976 0.000000 0.000000 0.000000 
0.451958 83.944229 3.532391 0.000000 0.000000 0.000000 -8.688800 -53.676742 -1.856891 -32.295129 11.472534 18.538448 60.958742 1.664115 3.902225 -21.308822 -8.570585 -15.554414 -8.943832 0.031539 1.991624 0.000000 0.000000 0.000000 -9.911819 -50.873756 -1.372797 -32.442060 -10.045987 -32.241017 60.883951 -4.344890 -8.566048 -25.002287 -6.711023 20.207545 -2.120953 0.626697 -0.629937 0.000000 0.000000 0.000000 -6.846203 -51.154353 -1.295748 11.861379 8.106135 -2.262215 1.364251 1.324052 -0.735946 0.730908 -0.887785 1.093553 0.000000 0.000000 0.000000 0.318154 1.881451 -0.753433 3.163997 14.212775 6.104498 7.459125 19.545186 -1.883159 0.000000 0.000000 0.000000 2.795379 1.188471 -0.154854 1.063995 3.007598 -8.329369 -1.787093 -6.163666 -2.402784 -53.362639 6.276806 -47.810880 171.406425 -72.821756 173.058620 0.000000 0.000000 0.000000 2.761892 1.663673 -0.454302 4.022603 12.541749 -5.185288 0.764022 -3.886066 -0.477690 -52.005743 23.529869 86.529460 178.031148 74.054270 -177.988883 0.000000 0.000000 0.000000 
0.570895 80.620712 5.648190 0.000000 0.000000 0.000000 -9.445137 -54.883589 -2.618368 -37.608879 10.402370 20.384741 69.565927 -0.278091 3.000919 -20.506697 -11.015479 -18.430921 -9.648170 -0.856131 5.406398 0.000000 0.000000 0.000000 -10.114681 -51.592124 -1.750033 -32.747588 -7.900207 -32.829458 63.475516 -3.067127 -8.830183 -26.491447 -7.521329 21.618068 -1.332473 0.488096 -0.979751 0.000000 0.000000 0.000000 -7.652663 -52.554604 -1.857430 13.356291 8.785835 -1.513493 1.034931 1.317407 -1.083280 0.614294 -0.108999 0.785337 0.000000 0.000000 0.000000 -0.405605 1.766215 -1.066023 2.060289 14.465135 5.991320 8.340973 19.831695 -1.623210 0.000000 0.000000 0.000000 2.205331 1.147339 -0.328485 0.903597 3.049412 -9.131399 -0.557475 -5.392559 -1.194761 -51.923518 7.000065 -47.390007 167.552532 -72.727704 168.933227 0.000000 0.000000 0.000000 1.918640 1.502164 -0.751736 3.938559 13.317277 -4.962318 0.517708 -2.704832 -0.388479 -52.710445 23.170935 85.140862 179.748476 75.160331 179.542778 0.000000 0.000000 0.000000 
